<svg xmlns="http://www.w3.org/2000/svg" xmlns:xlink="http://www.w3.org/1999/xlink" width="55" height="55" viewBox="0 0 55 55">
  <g id="Mask_Group_3" data-name="Mask Group 3" transform="translate(-48 -284)" clip-path="url(#clip-path)">
    <g id="man-placeholder" transform="translate(48.041 284)">
      <rect id="Rectangle_8" data-name="Rectangle 8" width="54.918" height="54.918" fill="#c7e7de"/>
      <g id="Group_39" data-name="Group 39">
        <path id="Path_37" data-name="Path 37" d="M42.232,55H11.89V47.586A3.709,3.709,0,0,1,15.6,43.879H38.5A3.709,3.709,0,0,1,42.2,47.586V55Z" fill="#61b39a"/>
        <path id="Path_38" data-name="Path 38" d="M28.53,45.746H25.592a1.406,1.406,0,0,1-1.4-1.4v-6.4H29.93v6.4A1.406,1.406,0,0,1,28.53,45.746Z" fill="#fff"/>
        <g id="Group_29" data-name="Group 29" opacity="0.13">
          <path id="Path_39" data-name="Path 39" d="M24.191,42.424a17.338,17.338,0,0,0,5.711.055V37.948H24.191Z" fill="#63b49b"/>
        </g>
        <g id="Group_30" data-name="Group 30">
          <path id="Path_40" data-name="Path 40" d="M14.526,30.287a36.048,36.048,0,0,1-1.455-7.441,7.464,7.464,0,0,1,.439-3.817A2.562,2.562,0,0,1,16.5,17.464a6.711,6.711,0,0,1,2.059-3.872A11.069,11.069,0,0,1,23.7,10.325a6.53,6.53,0,0,1,5.739,1.153c2.471-1.757,5.821-1.345,8.512.027A4.907,4.907,0,0,1,40.8,16.393a8.686,8.686,0,0,1-1.071,3.625,6.61,6.61,0,0,1,3.3,6.288,8.378,8.378,0,0,1-3.652,6.261c-.082.055-.165.11-.247.055-.082-.027-.082-.22,0-.22" fill="#61b39a"/>
        </g>
        <path id="Path_41" data-name="Path 41" d="M27.074,40.721h0a10.48,10.48,0,0,1-10.352-9.94l-.3-4.366a10.537,10.537,0,0,1,10.352-11.4h.577A10.552,10.552,0,0,1,37.7,26.415l-.3,4.366A10.474,10.474,0,0,1,27.074,40.721Z" fill="#fff"/>
        <path id="Path_42" data-name="Path 42" d="M40.255,34.653c-1.51,1.455-3.652,1.648-4.833.439s-.906-3.35.6-4.805,3.652-1.648,4.833-.439C42.039,31.028,41.765,33.2,40.255,34.653Z" fill="#fff"/>
        <g id="Group_33" data-name="Group 33">
          <g id="Group_31" data-name="Group 31">
            <path id="Path_43" data-name="Path 43" d="M37.042,34.735a3.24,3.24,0,0,1,2.773-3.679c.192-.027.11-.3-.082-.275a3.5,3.5,0,0,0-2.993,3.954c.027.192.33.192.3,0Z" fill="#61b39a"/>
          </g>
          <g id="Group_32" data-name="Group 32">
            <path id="Path_44" data-name="Path 44" d="M38,31.852a1.723,1.723,0,0,1-.412,1.95c-.137.137.082.33.22.22a1.979,1.979,0,0,0,.467-2.307.154.154,0,1,0-.275.137Z" fill="#61b39a"/>
          </g>
        </g>
        <g id="Group_34" data-name="Group 34" opacity="0.13">
          <path id="Path_45" data-name="Path 45" d="M33.225,16.283c-.439-.659-1.648-.824-2.361-.906a15.75,15.75,0,0,0-5.19.384,19.405,19.405,0,0,0-4.641,1.455,8.436,8.436,0,0,0-3.625,3.158,3,3,0,0,0-.165.3A2.418,2.418,0,0,1,18.4,22.9a55.22,55.22,0,0,1-1.236,6.068l.659.989a12.209,12.209,0,0,0,4.311-6.48,14.877,14.877,0,0,0,2.993-.412A7.393,7.393,0,0,0,29.3,18.59l.082-.165a.386.386,0,0,1,.384-.055,4.242,4.242,0,0,0,2.2-.082C32.758,18.013,33.8,17.162,33.225,16.283Z" fill="#63b49b"/>
        </g>
        <g id="Group_35" data-name="Group 35">
          <path id="Path_46" data-name="Path 46" d="M16.97,30.644a9.163,9.163,0,0,0,3.1-7.853,27.717,27.717,0,0,0,3.9-1.181,10.715,10.715,0,0,0,3.075-1.648,4.733,4.733,0,0,0,1.785-2.938,5.605,5.605,0,0,0,4.009-.082,1.166,1.166,0,0,0,.577-.439c.3-.522-.192-1.126-.686-1.455a11.213,11.213,0,0,0-7.826-1.812,6.814,6.814,0,0,0-3.02,1.016A9.29,9.29,0,0,0,19.77,16.53c-1.73,2.361-3.515,4.888-3.707,7.8-.082,1.757.412,3.57.11,5.327" fill="#61b39a"/>
        </g>
        <path id="Path_47" data-name="Path 47" d="M14.279,34.653c1.51,1.455,3.652,1.648,4.833.439s.906-3.35-.6-4.805-3.652-1.648-4.833-.439C12.494,31.028,12.768,33.2,14.279,34.653Z" fill="#fff"/>
        <g id="Group_38" data-name="Group 38">
          <g id="Group_36" data-name="Group 36">
            <path id="Path_48" data-name="Path 48" d="M17.491,34.735a3.24,3.24,0,0,0-2.773-3.679c-.192-.027-.11-.3.082-.275a3.5,3.5,0,0,1,2.993,3.954c-.027.192-.3.192-.3,0Z" fill="#61b39a"/>
          </g>
          <g id="Group_37" data-name="Group 37">
            <path id="Path_49" data-name="Path 49" d="M16.558,31.852a1.723,1.723,0,0,0,.412,1.95c.137.137-.082.33-.22.22a1.979,1.979,0,0,1-.467-2.307c.082-.192.33-.055.275.137Z" fill="#61b39a"/>
          </g>
        </g>
      </g>
    </g>
  </g>
</svg>
