<svg id="woman-placeholder" xmlns="http://www.w3.org/2000/svg" width="55" height="55" viewBox="0 0 55 55">
  <rect id="Rectangle_13" data-name="Rectangle 13" width="55" height="55" fill="#f8e5c4"/>
  <g id="Group_67" data-name="Group 67" transform="translate(10.045 9.087)">
    <g id="Group_56" data-name="Group 56">
      <path id="Path_66" data-name="Path 66" d="M38.518,49.607c3.575-1.952,4.675-6.352,3.74-10.092-.632-2.585-2.31-4.867-2.778-7.48a35.037,35.037,0,0,1,.028-6.792,30.2,30.2,0,0,0-.3-6.875A13.767,13.767,0,0,0,30.818,7.752a12.876,12.876,0,0,0-5.2-.8,17.648,17.648,0,0,0-6,1.073,3.351,3.351,0,0,0-1.9,1.925c-3-.11-4.427,2.75-5.335,5.115a23.857,23.857,0,0,0-1.21,10.313c.165,2.227.55,5.913-.248,7.975A18.828,18.828,0,0,1,9.4,36.187a11.64,11.64,0,0,0-1.513,8.085,7.569,7.569,0,0,0,5.39,5.885" transform="translate(-7.671 -6.939)" fill="#f1be4e"/>
    </g>
    <path id="Path_67" data-name="Path 67" d="M40.251,44.737H9.093v-6.82a4.759,4.759,0,0,1,4.757-4.758H35.465a4.759,4.759,0,0,1,4.757,4.758v6.82Z" transform="translate(-7.23 1.176)" fill="#d89c3a"/>
    <path id="Path_68" data-name="Path 68" d="M23.486,37.55H20.351a1.438,1.438,0,0,1-1.43-1.43V28.833h6.022v7.287A1.462,1.462,0,0,1,23.486,37.55Z" transform="translate(-4.188 -0.163)" fill="#fff"/>
    <g id="Group_57" data-name="Group 57" transform="translate(14.733 28.67)" opacity="0.13">
      <path id="Path_69" data-name="Path 69" d="M18.921,31.858a23.226,23.226,0,0,0,6.022.11V28.833H18.921Z" transform="translate(-18.921 -28.833)" fill="#f1be4e"/>
    </g>
    <path id="Path_70" data-name="Path 70" d="M23.94,36.489h0a11.385,11.385,0,0,1-11.22-10.78l-.3-4.73A11.429,11.429,0,0,1,23.637,8.631h.632A11.429,11.429,0,0,1,35.49,20.979l-.3,4.73A11.41,11.41,0,0,1,23.94,36.489Z" transform="translate(-6.21 -6.416)" fill="#fff"/>
    <g id="Group_58" data-name="Group 58" transform="translate(5.573 11.868)">
      <path id="Path_71" data-name="Path 71" d="M13.056,16.25a13.046,13.046,0,0,1,.715,3.822,7.714,7.714,0,0,1-.825,3.768A12.966,12.966,0,0,1,12.231,16" transform="translate(-11.927 -16.002)" fill="#f1be4e"/>
    </g>
    <g id="Group_59" data-name="Group 59" transform="translate(27.934 12.555)">
      <path id="Path_72" data-name="Path 72" d="M29.5,16.527a10.254,10.254,0,0,0,.578,7.7,8.356,8.356,0,0,0,.715-6.463.7.7,0,0,1,0-.412" transform="translate(-29.002 -16.527)" fill="#f1be4e"/>
    </g>
    <path id="Path_73" data-name="Path 73" d="M19.928,24.754c0,1.017-1.128,1.842-2.53,1.842s-2.53-.825-2.53-1.842S16,22.911,17.4,22.911,19.928,23.736,19.928,24.754Z" transform="translate(-5.443 -1.996)" fill="#f1be4e" opacity="0.13"/>
    <ellipse id="Ellipse_12" data-name="Ellipse 12" cx="2.53" cy="1.842" rx="2.53" ry="1.842" transform="translate(20.205 20.915)" fill="#f1be4e" opacity="0.13"/>
    <path id="Path_74" data-name="Path 74" d="M33.907,26.321c-1.622,1.567-3.96,1.788-5.225.5-1.265-1.32-.962-3.63.66-5.225s3.96-1.787,5.225-.5S35.53,24.726,33.907,26.321Z" transform="translate(-1.409 -2.821)" fill="#fff"/>
    <g id="Group_62" data-name="Group 62" transform="translate(29.141 19.319)">
      <g id="Group_60" data-name="Group 60" transform="translate(0 0)">
        <path id="Path_75" data-name="Path 75" d="M30.255,25.983A3.517,3.517,0,0,1,33.28,22c.192-.028.11-.33-.083-.3a3.809,3.809,0,0,0-3.245,4.29c0,.192.33.192.3,0Z" transform="translate(-29.924 -21.692)" fill="#f1be4e"/>
      </g>
      <g id="Group_61" data-name="Group 61" transform="translate(0.854 0.896)">
        <path id="Path_76" data-name="Path 76" d="M31.1,22.609a1.821,1.821,0,0,1-.467,2.118c-.165.137.083.358.22.22a2.186,2.186,0,0,0,.523-2.5c-.083-.165-.358,0-.275.165Z" transform="translate(-30.576 -22.376)" fill="#f1be4e"/>
      </g>
    </g>
    <path id="Path_77" data-name="Path 77" d="M10.631,26.319c1.623,1.568,3.96,1.788,5.225.5,1.265-1.32.963-3.63-.66-5.225-1.623-1.568-3.96-1.788-5.225-.5S9.009,24.724,10.631,26.319Z" transform="translate(-7.201 -2.819)" fill="#fff"/>
    <g id="Group_65" data-name="Group 65" transform="translate(3.321 19.319)">
      <g id="Group_63" data-name="Group 63" transform="translate(0 0)">
        <path id="Path_78" data-name="Path 78" d="M13.341,25.983A3.537,3.537,0,0,0,10.316,22c-.193-.028-.11-.33.082-.3a3.809,3.809,0,0,1,3.245,4.29c0,.192-.33.192-.3,0Z" transform="translate(-10.206 -21.692)" fill="#f1be4e"/>
      </g>
      <g id="Group_64" data-name="Group 64" transform="translate(1.632 0.896)">
        <path id="Path_79" data-name="Path 79" d="M11.91,22.609a1.821,1.821,0,0,0,.467,2.118c.165.137-.083.358-.22.22a2.186,2.186,0,0,1-.522-2.5c.082-.165.357,0,.275.165Z" transform="translate(-11.453 -22.376)" fill="#f1be4e"/>
      </g>
    </g>
    <g id="Group_66" data-name="Group 66" transform="translate(5.319 0.816)">
      <path id="Path_80" data-name="Path 80" d="M23.594,7.587a13.576,13.576,0,0,0-10.285,5.555c-.467.688-2.227,6.435-1.32,6.738a12.04,12.04,0,0,0,3.96.6c.44-1.265.88-2.5,1.32-3.767a13.212,13.212,0,0,0-.165,3.6.657.657,0,0,0,.138.385.48.48,0,0,0,.33.11,41.441,41.441,0,0,0,6.132.192c.275-1.485.577-2.97.852-4.455.165,1.43.358,2.887.523,4.318l5.335.165a26.65,26.65,0,0,0,0-3.63c.358,1.21.715,2.392,1.073,3.6,1.678-.028,3.355,0,5.033-.165a20.891,20.891,0,0,0-.11-2.833,13.765,13.765,0,0,0-.908-2.915,14.3,14.3,0,0,0-3.355-4.428,10.667,10.667,0,0,0-2.173-1.677A11.306,11.306,0,0,0,23.594,7.587Z" transform="translate(-11.732 -7.562)" fill="#f1be4e"/>
    </g>
  </g>
</svg>
