<svg version="1.2" xmlns="http://www.w3.org/2000/svg" viewBox="0 0 200 200" width="200" height="200">
	<path stroke="#63b49b"  stroke-width="15" fill="none"  d="m128.6 87.1c1 0 1.6 0 2.3 0 13.2 0 26.4 0 39.5 0.1 8 0 13.4 6.2 12.7 14.5-0.6 6.3-5.8 11.9-12 12.6-0.5 0.1-0.9 0.1-1.4 0.3 5.5 1.9 9.1 5.4 9.6 11.5 0.5 6.2-2.3 10.7-7.5 13.8 5.6 9 4.9 13.2-2.9 20.5 0.7 1.7 1.6 3.3 2 5 1.5 6.4-3 13.3-9.7 14.9-1.2 0.3-2.5 0.4-3.7 0.4q-12.9 0-25.7 0-22.6-0.2-45.3-0.4c-5.2 0-9-4-9-9.3 0-19.1 0-38.7-0.1-58.6 0-5.1 1.6-9.8 3.5-14.4 4.3-10.4 10.5-19.7 17.1-28.9 3.4-4.6 6.9-9.1 10.4-13.6 4.1-5.3 6.7-11.3 6.8-18.3 0.1-2.6-0.2-5.2 0.2-7.7 0.8-5.2 4.2-8.2 9-8.6 8.4-0.8 13.5 3.9 13.9 13 0.3 6.3 0.5 12.7 0.5 19-0.2 8.2-2.4 15.9-5.6 23.3-1.6 3.5-3 7.1-4.6 10.9z"/>
	<path stroke="#63b49b"  stroke-width="15" fill="none"  d="m22.8 109.8c0-5.5 4.5-10 10-10h21.9c5.5 0 10 4.5 10 10v59.9c0 5.5-4.5 10-10 10h-21.9c-5.5 0-10-4.5-10-10z"/>
</svg>