<svg version="1.2" xmlns="http://www.w3.org/2000/svg" viewBox="0 0 55 55" width="55" height="55">
	<title>boy-placeholder-svg</title>
	<style>
		.s0 { fill: #61b39a } 
		.s1 { fill: #ffffff } 
	</style>
	<path id="Rectangle_8" class="s0" d="m0 0h55v54.9h-55z"/>
	<path id="&lt;Path&gt;" class="s1" d="m27.7 24.7c-3.3 0-5.9-2.6-5.9-5.7 0-3.2 2.6-5.7 5.9-5.7 3.2 0 5.8 2.5 5.8 5.7 0 3.1-2.6 5.7-5.8 5.7z"/>
	<path id="&lt;Path&gt;" class="s1" d="m38.5 37.2c0 1.6-1.3 2.8-2.9 2.8h-15.9c-1.6 0-2.9-1.2-2.9-2.8 0-5.8 4.9-10.6 10.9-10.6 5.9 0 10.8 4.8 10.8 10.6z"/>
</svg>