<svg xmlns="http://www.w3.org/2000/svg" width="137.214" height="33" viewBox="0 0 137.214 33">
  <g id="trellus-logo" transform="translate(-10.6 -7.8)">
    <path id="Path_1" data-name="Path 1" d="M32,7.8c0,3.036.029,6.073.029,9.138,0,1.232,0,2.464-.029,3.7a17.291,17.291,0,0,1-.687,4.5,20.913,20.913,0,0,1-6.1,10.083,20.113,20.113,0,0,1-6.474,4.068,17.335,17.335,0,0,1-4.813,1.289,9.3,9.3,0,0,0-1.232.229c-.6,0-1.2-.029-1.776,0-.286,0-.315-.057-.315-.315V27.909a7.085,7.085,0,0,0,.143-1.089,18.017,18.017,0,0,1,1-4.784,20.836,20.836,0,0,1,4.354-7.3,20.448,20.448,0,0,1,5.3-4.24A20.853,20.853,0,0,1,25.61,8.717a17.612,17.612,0,0,1,4.068-.773,2.033,2.033,0,0,0,.831-.143Z" transform="translate(0 0)" fill="#fabb33"/>
    <g id="Group_1" data-name="Group 1" transform="translate(38.414 11.724)">
      <path id="Path_2" data-name="Path 2" d="M237.073,53.451a9.208,9.208,0,0,0-13.607,1.461,9.866,9.866,0,0,0-1.719,5.271,10.153,10.153,0,0,0,2.12,7.19,9.387,9.387,0,0,0,7.419,3.438,10.509,10.509,0,0,0,6.474-2.12,1.161,1.161,0,0,0,.573-.945,1.2,1.2,0,0,0-.687-1.146,1.254,1.254,0,0,0-1.461.172A6.979,6.979,0,0,1,233.807,68c-4.326,1.318-8.737-.974-9.453-5.672-.057-.372.029-.43.372-.43h13.664c1,0,1.461-.458,1.432-1.461,0-.372-.029-.773-.057-1.146A8.985,8.985,0,0,0,237.073,53.451Zm-.659,6.159H224.841c-.372,0-.458-.086-.4-.458a6.6,6.6,0,0,1,3.523-4.9c3.18-1.547,8.078-.716,9.167,4.469C237.331,59.61,237.331,59.61,236.414,59.61Z" transform="translate(-189.061 -42.623)" fill="#555454"/>
      <path id="Path_3" data-name="Path 3" d="M301.579,22.417a.963.963,0,0,0-.917-.917h-.6c-.945,0-1.26.315-1.26,1.26v25.7a.938.938,0,0,0,.888.917,4.627,4.627,0,0,0,.63,0c.888,0,1.232-.344,1.232-1.26V22.789A1.635,1.635,0,0,0,301.579,22.417Z" transform="translate(-244.057 -21.5)" fill="#555454"/>
      <path id="Path_4" data-name="Path 4" d="M187.187,51.73a2.446,2.446,0,0,0-1.06-.516,7.449,7.449,0,0,0-5.815,1,7.146,7.146,0,0,0-1.891,1.833V52.675a1.385,1.385,0,0,0-.544-1.146,1.3,1.3,0,0,0-1.432-.115,1.414,1.414,0,0,0-.745,1.375V69.175a1.3,1.3,0,0,0,.831,1.174,1.264,1.264,0,0,0,1.4-.229,1.566,1.566,0,0,0,.487-1.289V58.748a4.65,4.65,0,0,1,3.036-4.555,7.784,7.784,0,0,1,4.039-.487,4.436,4.436,0,0,0,1.232,0,1.037,1.037,0,0,0,.888-.8A1.157,1.157,0,0,0,187.187,51.73Z" transform="translate(-156.22 -42.563)" fill="#555454"/>
      <path id="Path_5" data-name="Path 5" d="M129.583,24.618a1.217,1.217,0,0,0-1.26-1.318H109.273a2.621,2.621,0,0,0-.487.029,1.253,1.253,0,0,0,.258,2.492c2.549,0,5.128.029,7.677,0,.458,0,.544.143.544.573-.029,3.781,0,7.591,0,11.372V49a2.465,2.465,0,0,0,.029.458,1.4,1.4,0,0,0,2.779-.315v-22.8c0-.372.057-.516.487-.516,2.578.029,5.185,0,7.763,0A1.223,1.223,0,0,0,129.583,24.618Z" transform="translate(-107.696 -22.784)" fill="#555454"/>
      <path id="Path_6" data-name="Path 6" d="M450.916,63.938a4.774,4.774,0,0,0-2.578-3.409,15.012,15.012,0,0,0-4.555-1.4,9.756,9.756,0,0,1-3.466-1.06,2.319,2.319,0,0,1-.63-3.724,3.931,3.931,0,0,1,1.518-.917,6.665,6.665,0,0,1,2.807-.258,5.683,5.683,0,0,1,3.953,1.919l.516.516a1.291,1.291,0,0,0,1.776-.115,1.262,1.262,0,0,0,.029-1.776,8.288,8.288,0,0,0-6.159-3.036,9.655,9.655,0,0,0-5.214,1.031,4.761,4.761,0,0,0-2.177,6.159,5.711,5.711,0,0,0,2.922,2.578,18.014,18.014,0,0,0,4.268,1.117,8.445,8.445,0,0,1,3.18,1.117,2.393,2.393,0,0,1,1.174,2.693,2.874,2.874,0,0,1-2.206,2.12c-3.008.745-5.844.6-8.164-1.8a1.333,1.333,0,0,0-1.977-.086,1.388,1.388,0,0,0,.086,2.005,5.3,5.3,0,0,0,1.146.974,11.212,11.212,0,0,0,10.112,1.089,5.341,5.341,0,0,0,3.667-3.982c0-.029.057-.057.086-.086V64.053A.105.105,0,0,1,450.916,63.938Z" transform="translate(-341.631 -42.311)" fill="#555454"/>
      <path id="Path_7" data-name="Path 7" d="M373.373,51.215a1.349,1.349,0,0,0-1.862,1.4V62.845a4.574,4.574,0,0,1-1.977,3.924,7.027,7.027,0,0,1-6.9.8,5.139,5.139,0,0,1-3.266-3.581,9.5,9.5,0,0,1-.315-2.521V52.59a1.379,1.379,0,1,0-2.75,0V61.9a9.427,9.427,0,0,0,1.031,4.411c1.776,3.437,5.414,4.7,8.937,4.3a8.374,8.374,0,0,0,5.242-2.664v1.2a1.325,1.325,0,0,0,1.432,1.318c.831-.029,1.318-.6,1.318-1.547V52.274A1.221,1.221,0,0,0,373.373,51.215Z" transform="translate(-285.085 -42.621)" fill="#555454"/>
      <path id="Path_8" data-name="Path 8" d="M331.707,22.417a.979.979,0,0,0-1-.917h-.516c-.974,0-1.289.315-1.289,1.289V48.2a1.072,1.072,0,0,0,.8,1.174,5.518,5.518,0,0,0,.688.029c1,0,1.318-.315,1.318-1.318V22.932A3.1,3.1,0,0,0,331.707,22.417Z" transform="translate(-265.534 -21.5)" fill="#555454"/>
    </g>
  </g>
</svg>
